<?xml version="1.0" encoding="utf-8"?>
<!-- Generator: Adobe Illustrator 18.0.0, SVG Export Plug-In . SVG Version: 6.00 Build 0)  -->
<!DOCTYPE svg PUBLIC "-//W3C//DTD SVG 1.1//EN" "http://www.w3.org/Graphics/SVG/1.1/DTD/svg11.dtd">
<svg version="1.1" id="Layer_1" xmlns="http://www.w3.org/2000/svg" xmlns:xlink="http://www.w3.org/1999/xlink" x="0px" y="0px"
	 viewBox="0 0 31 31" enable-background="new 0 0 31 31" xml:space="preserve">
<g>
	<path fill="#231F20" d="M28.5,8.5h-26C1.1,8.5,0,7.4,0,6s1.1-2.5,2.5-2.5h26C29.9,3.5,31,4.6,31,6S29.9,8.5,28.5,8.5z"/>
</g>
<g>
	<path fill="#231F20" d="M28.5,17.5h-26C1.1,17.5,0,16.4,0,15s1.1-2.5,2.5-2.5h26c1.4,0,2.5,1.1,2.5,2.5S29.9,17.5,28.5,17.5z"/>
</g>
<g>
	<path fill="#231F20" d="M28.5,26.5h-26C1.1,26.5,0,25.4,0,24s1.1-2.5,2.5-2.5h26c1.4,0,2.5,1.1,2.5,2.5S29.9,26.5,28.5,26.5z"/>
</g>
</svg>
