<?xml version="1.0" encoding="utf-8"?>
<!-- Generator: Adobe Illustrator 18.0.0, SVG Export Plug-In . SVG Version: 6.00 Build 0)  -->
<!DOCTYPE svg PUBLIC "-//W3C//DTD SVG 1.1//EN" "http://www.w3.org/Graphics/SVG/1.1/DTD/svg11.dtd">
<svg version="1.1" id="Layer_1" xmlns="http://www.w3.org/2000/svg" xmlns:xlink="http://www.w3.org/1999/xlink" x="0px" y="0px"
	 viewBox="0 0 160 82" enable-background="new 0 0 160 82" xml:space="preserve">
<g>
	<path fill="#6A767A" d="M41.4,81.1v-1c-0.6,0-1.4-0.2-1.9-0.5c-0.7-0.4-1.1-0.9-1.4-1.5c-1.2-2.9-4-10.2-7.1-18.2h-2.5
		c-2.3,5.9-4.9,12.3-7,17.6c-0.4,1-0.9,1.6-1.7,2.1c-0.6,0.3-1.5,0.5-2.1,0.5v1h8.8v-1C25.3,80,23,79.7,23,78.8
		c0-0.4,0.1-1.1,0.3-1.7c0.2-0.8,0.7-2.1,1-3h6.8l1.7,4.4c0.1,0.2,0.2,0.5,0.2,0.7c0,0.5-2.1,0.8-3.1,0.9v1H41.4L41.4,81.1z
		 M30.5,72.6h-5.6l2.8-7.2L30.5,72.6L30.5,72.6z M54.5,69.5c0-1.7-1.1-2.9-2.8-2.9c-1.5,0-2.8,0.8-4.1,2.4h-0.1v-2.1l-0.2-0.2
		l-6.5,0.4V68c0.6,0,1.2,0.2,1.5,0.4c0.5,0.3,0.8,1,0.8,1.6v8.5c0,0.7-0.2,1.2-0.8,1.3c-0.4,0.1-0.8,0.2-1.3,0.2v0.9h9.4v-0.9
		c-0.5,0-1.5-0.2-2-0.4c-0.6-0.2-0.9-0.7-0.9-1.3v-8.1c0.3-0.4,1.2-1.6,2.6-1.6c-0.1,0.2-0.2,0.8-0.2,1.5c0,1.4,1,2,2.3,2
		C53.6,72.1,54.5,71,54.5,69.5L54.5,69.5z M68.6,77.5l-1-0.7c-1,1.7-2.1,2.8-4,2.8c-2.2,0-3.9-2.3-3.9-5.8c0-4.6,1.4-6.2,3-6.2
		c0.9,0,1.1,0.4,1.2,1.1c0,0.6-0.5,0.7-0.5,1.9c0,1.3,1.5,1.8,2.4,1.8c1.6,0,2.3-0.9,2.3-2.3c0-2.1-1.7-3.6-5.4-3.6
		c-4.8,0-7.7,3.6-7.7,7.5c0,4.3,2.4,7.6,7.5,7.6C65.3,81.5,67.5,79.7,68.6,77.5L68.6,77.5z M86.5,81.1v-0.9c-0.6,0-0.9-0.2-1.3-0.3
		c-0.6-0.2-0.7-0.7-0.7-1.3v-7.1c0-2.9-1.3-4.8-4.2-4.8c-2.6,0-3.9,1.4-5,2.5h-0.1V58.5l-0.2-0.2l-7.1,0.4v0.9
		c0.6,0,1.7,0.2,2.1,0.4c0.5,0.3,0.8,1.2,0.8,1.8v16.8c0,0.7-0.2,1.2-0.8,1.3c-0.4,0.1-0.8,0.2-1.3,0.2v0.9h8.3v-0.9
		c-0.4,0-0.8-0.2-1.1-0.4c-0.5-0.2-0.6-0.7-0.6-1.3v-7.8c0.3-0.7,1.2-2,3-2c1,0,1.9,1.1,1.9,3.1v6.8c0,0.7-0.1,1.2-0.6,1.3
		c-0.3,0.1-0.7,0.2-1.1,0.2v0.9H86.5L86.5,81.1z M93.8,61.2c0-1.5-1.2-2.6-2.7-2.6c-1.5,0-2.7,1.2-2.7,2.6c0,1.5,1.2,2.6,2.7,2.6
		C92.6,63.8,93.8,62.7,93.8,61.2L93.8,61.2z M95.7,81.1v-0.9c-0.6,0-0.9-0.2-1.3-0.4c-0.6-0.2-0.8-0.7-0.8-1.4V66.9l-0.2-0.2
		l-6.8,0.4V68c0.6,0,1.5,0.3,1.8,0.5c0.5,0.3,0.7,0.9,0.8,1.5v8.5c0,0.7-0.2,1.2-0.8,1.3c-0.4,0.1-0.8,0.2-1.3,0.2v0.9H95.7
		L95.7,81.1z M106.4,77h-1.2c-0.1,1.3-0.4,2.5-1.5,2.5c-1.5,0-1.8-1.1-1.8-2.8v-8.3h4v-1.4h-4v-4.3h-4.3v4.3h-2.7v1.4h2.6v8.8
		c0,2.8,1.4,4.3,4.4,4.3C105.3,81.5,106.2,79.4,106.4,77L106.4,77z M121.6,77.7l-1-0.7c-1,1.7-2.3,2.6-4.1,2.6
		c-3.2,0-4.6-2.2-4.6-6.2h9.3v-0.9c0-3.2-1.7-6.1-6.6-6.1c-4.7,0-7.4,3.6-7.4,7.4c0,4.3,2.4,7.6,7.7,7.6
		C117.9,81.5,120.4,79.8,121.6,77.7L121.6,77.7z M116.6,72.2l-4.7,0.1c0.1-3.1,1.1-4.7,2.5-4.7C116.2,67.6,116.6,69.8,116.6,72.2
		L116.6,72.2z M136.3,77.5l-1-0.7c-1,1.7-2.1,2.8-4,2.8c-2.2,0-3.9-2.3-3.9-5.8c0-4.6,1.4-6.2,3-6.2c0.9,0,1.1,0.4,1.2,1.1
		c0,0.6-0.5,0.7-0.5,1.9c0,1.3,1.5,1.8,2.4,1.8c1.6,0,2.3-0.9,2.3-2.3c0-2.1-1.7-3.6-5.4-3.6c-4.8,0-7.7,3.6-7.7,7.5
		c0,4.3,2.4,7.6,7.5,7.6C133,81.5,135.2,79.7,136.3,77.5L136.3,77.5z M147.6,77h-1.2c-0.1,1.3-0.4,2.5-1.5,2.5
		c-1.5,0-1.8-1.1-1.8-2.8v-8.3h4v-1.4h-4v-4.3h-4.3v4.3h-2.7v1.4h2.6v8.8c0,2.8,1.4,4.3,4.4,4.3C146.5,81.5,147.4,79.4,147.6,77
		L147.6,77z M160,76.8c0-2.5-1.7-3.8-4.2-4.6c-2.4-0.8-3.5-1.1-3.5-2.7c0-1.1,0.9-1.9,2.2-1.9c1.7,0,3.3,1.7,3.9,3.6h0.9l-0.2-4.8
		h-1l-0.3,0.9c-0.9-0.4-2.4-0.9-3.8-0.9c-3.5,0-5.5,2-5.5,4.4c0,2.8,2.2,3.9,4.2,4.6c2.1,0.7,3.6,1.2,3.6,2.8c0,1.4-0.9,2.2-2.4,2.2
		c-2.4,0-4.3-2.7-4.8-4.4H148l0.2,5.2h1l0.5-1c0.6,0.5,2.4,1.3,4.3,1.3C157.3,81.6,160,79.9,160,76.8L160,76.8z"/>
	<path d="M16.8,43.7v-0.9H9.8v0.9c1.1,0.2,1.9,0.6,1.9,1c0,0.9-0.7,2.1-1.6,3.3c-1.1-1.3-2.3-2.8-3.5-4.3c2.1-0.9,3.2-2.2,3.2-3.7
		c0-1.8-1.3-3-3.3-3c-2.3,0-4.3,1.4-4.3,3.5c0,1,0.2,1.9,1.4,3.6C1.1,45.2,0,46.8,0,48.7c0,2.6,2.1,3.9,4.2,3.9
		c1.9,0,3.4-0.9,4.7-2.1c0.5,0.6,0.9,1.1,1.4,1.6h6.1v-1c-0.9-0.1-2.8-0.3-3.5-0.7c-0.6-0.3-1.3-1-2.1-1.7c1.3-1.5,2.1-3.3,2.7-3.9
		C14.1,44.2,15.2,44,16.8,43.7L16.8,43.7z M8.2,39.8c0,1.4-0.9,2.5-2.2,3.2c-0.9-1.3-1.3-2.3-1.3-3.2c0-0.7,0.4-1.8,1.8-1.8
		C7.4,37.9,8.2,38.4,8.2,39.8L8.2,39.8z M8.2,49.8c-0.8,0.7-1.8,1.2-2.8,1.2c-1.7,0-2.7-1.3-2.7-2.9c0-1.6,0.5-2.6,1.5-3.2
		C5.4,46.2,6.8,48,8.2,49.8L8.2,49.8z M48.4,52.2v-1c-0.6,0-1.9-0.2-2.3-0.4c-0.7-0.3-0.9-0.8-0.9-1.5v-15c0-0.7,0.2-1.3,0.9-1.5
		c0.6-0.2,1.7-0.3,2.3-0.4v-1h-9.2c0,0.3-0.2,1.5-0.7,2.6l-4.3,11.2l-5.2-13.8h-9.6v1c0.8,0,2,0.2,2.8,0.8c0.6,0.5,0.9,1.3,0.9,2.6
		v10.6c0,2.5-0.3,3.7-1,4.2c-0.7,0.5-2.3,0.7-2.8,0.7v1h9.4v-1c-0.6,0-2.4-0.5-2.9-0.9c-0.7-0.6-1-1.6-1-4.2V33.4L30,47.6
		c0.3,0.8,1.3,3.6,1.5,4.3H33l7.1-18.2v15.5c0,0.7-0.3,1.2-1,1.6c-0.4,0.2-2,0.3-2.6,0.4v1H48.4L48.4,52.2z M63.2,48.6l-1-0.7
		c-1,1.7-2.1,2.8-4,2.8c-2.2,0-3.9-2.3-3.9-5.8c0-4.6,1.4-6.2,3-6.2c0.9,0,1.1,0.4,1.2,1.1c0,0.6-0.5,0.7-0.5,1.9
		c0,1.3,1.5,1.8,2.4,1.8c1.6,0,2.3-0.9,2.3-2.3c0-2.1-1.7-3.6-5.4-3.6c-4.8,0-7.7,3.6-7.7,7.5c0,4.3,2.4,7.6,7.5,7.6
		C60,52.6,62.2,50.8,63.2,48.6L63.2,48.6z M86.2,52.2v-1c-0.6,0-1.4-0.2-1.9-0.5c-0.7-0.4-1.1-0.9-1.4-1.5c-1.2-2.9-4-10.2-7.1-18.2
		h-2.5c-2.3,5.9-4.9,12.3-7,17.6c-0.4,1-0.9,1.6-1.7,2.1c-0.6,0.3-1.5,0.5-2.1,0.5v1h8.8v-1c-1.1-0.1-3.4-0.4-3.4-1.3
		c0-0.4,0.1-1.1,0.3-1.7c0.2-0.8,0.7-2.1,1-3h6.8l1.7,4.4c0.1,0.2,0.2,0.5,0.2,0.7c0,0.5-2.1,0.8-3.1,0.9v1H86.2L86.2,52.2z
		 M75.3,43.7h-5.6l2.8-7.2L75.3,43.7L75.3,43.7z M95.3,52.2v-0.9c-0.6,0-0.9-0.2-1.3-0.4c-0.6-0.2-0.8-0.7-0.8-1.4V29.6L93,29.3
		l-7.2,0.4v0.9c0.6,0,1.8,0.3,2.2,0.6c0.5,0.3,0.8,1,0.8,1.7v16.7c0,0.7-0.2,1.2-0.8,1.3c-0.4,0.1-0.8,0.2-1.3,0.2v0.9H95.3
		L95.3,52.2z M112.4,45.2c0-4.6-2.6-7.6-6.2-7.6c-1.9,0-3.4,1.3-4.1,2l-0.1,0V38l-0.2-0.2l-6.6,0.4v0.9c0.6,0,1.3,0.2,1.7,0.5
		c0.5,0.3,0.7,0.9,0.8,1.5c0,2.2,0,12.5,0,15.4c0,0.7-0.2,1.2-0.8,1.4c-0.4,0.1-1.2,0.2-1.7,0.3v0.9h10v-0.9c-0.6,0-1.8-0.3-2.3-0.5
		c-0.6-0.2-0.9-0.7-0.9-1.4c0-1,0-3.4,0-4.7h0.1c0.7,0.5,1.8,0.9,3.5,0.9C109.1,52.5,112.4,49.5,112.4,45.2L112.4,45.2z M107.6,45.3
		c0,3.9-1.3,6.1-3.1,6.1c-1.6,0-2.3-1.3-2.6-2.2v-8.3c0.6-0.8,1.3-1.3,2.4-1.3C106.7,39.5,107.6,42.4,107.6,45.3L107.6,45.3z
		 M120.8,32.3c0-1.5-1.2-2.6-2.7-2.6s-2.7,1.2-2.7,2.6s1.2,2.6,2.7,2.6S120.8,33.8,120.8,32.3L120.8,32.3z M122.7,52.2v-0.9
		c-0.6,0-0.9-0.2-1.3-0.4c-0.6-0.2-0.8-0.7-0.8-1.4V38l-0.2-0.2l-6.8,0.4v0.9c0.6,0,1.5,0.3,1.8,0.5c0.5,0.3,0.7,0.9,0.8,1.5v8.5
		c0,0.7-0.2,1.2-0.8,1.3c-0.4,0.1-0.8,0.2-1.3,0.2v0.9H122.7L122.7,52.2z M141.7,52.2v-0.9c-0.6,0-0.9-0.2-1.3-0.3
		c-0.6-0.2-0.7-0.7-0.7-1.3v-7.1c0-2.9-1.4-4.8-4.2-4.8c-2.6,0-3.8,1.4-5,2.5h-0.1V38l-0.2-0.2l-6.5,0.4v0.9c0.6,0,1.2,0.2,1.5,0.4
		c0.5,0.3,0.8,1,0.8,1.6v8.5c0,0.7-0.2,1.2-0.8,1.3c-0.4,0.1-0.8,0.2-1.3,0.2v0.9h8.3v-0.9c-0.4,0-0.8-0.2-1.1-0.4
		c-0.5-0.2-0.6-0.7-0.6-1.3v-7.8c0.3-0.7,1.2-2,3-2c1,0,1.9,1.1,1.9,3.1v6.8c0,0.7-0.1,1.2-0.6,1.3c-0.3,0.1-0.7,0.2-1.1,0.2v0.9
		H141.7L141.7,52.2z"/>
	<path d="M38.8,7.8V2.4H19.9v1c0.6,0,1.8,0.3,2.4,0.5c0.8,0.3,0.9,0.8,0.9,1.5v15c0,0.7-0.2,1.2-0.9,1.5c-0.4,0.2-1.9,0.3-2.4,0.3v1
		h11.7v-1c-0.6,0-1.9-0.3-2.3-0.4c-0.7-0.3-0.9-0.8-0.9-1.5v-7.1h2.1c1.7,0,2.3,0.5,2.7,0.9c0.4,0.4,1.1,2,1.1,2.9h1.1V8.3h-1.1
		c-0.1,0.8-0.7,2.3-1.1,2.7c-0.4,0.4-1,0.9-2.7,0.9h-2.1V3.6h3.2c1,0,1.8,0.1,2.5,0.2c1.4,0.2,3.1,2.7,3.6,4.1H38.8L38.8,7.8z
		 M51.9,11.7c0-1.7-1.1-2.9-2.8-2.9c-1.5,0-2.8,0.8-4.1,2.4H45V9.1l-0.2-0.2l-6.5,0.4v0.9c0.6,0,1.2,0.2,1.5,0.4
		c0.5,0.3,0.8,1,0.8,1.6v8.5c0,0.7-0.2,1.2-0.8,1.3c-0.4,0.1-0.8,0.2-1.3,0.2v0.9h9.4v-0.9c-0.5,0-1.5-0.2-2-0.4
		c-0.6-0.2-0.9-0.7-0.9-1.3v-8.1c0.3-0.4,1.2-1.6,2.6-1.6c-0.1,0.2-0.2,0.8-0.2,1.5c0,1.4,1,2,2.3,2C51,14.3,51.9,13.1,51.9,11.7
		L51.9,11.7z M68.8,19.3h-1.1c0,1.1-0.3,2.4-1.1,2.4c-1,0-1.1-1-1.1-1.4c0-1,0.2-4.2,0.2-7c0-4.1-2.7-4.7-6.1-4.7
		c-2.7,0-6,1.4-6,3.3c0,1,0.6,2.1,2.2,2.1c1.6,0,2.4-1.1,2.4-1.7c0-0.8-0.4-1.6-0.4-2c0.3-0.3,0.8-0.6,1.6-0.6
		c1.8,0,1.9,2.1,1.9,3.1v1.4c-1.2,0.6-3.6,1.2-5.3,1.9c-1.6,0.6-3.1,1.5-3.1,4.1c0,2,1.6,3.5,3.7,3.5c2.4,0,3.6-0.9,4.6-2.1h0.1
		c0.6,1.2,1.5,2,3.5,2C67.4,23.7,68.7,22.2,68.8,19.3L68.8,19.3z M61.3,15.4l-0.1,5c-0.5,0.6-1,1.1-2,1.1c-0.9,0-1.7-0.7-1.7-2.2
		C57.5,17,59.1,16.2,61.3,15.4L61.3,15.4z M86.9,23V22c-0.6,0-1.5-0.1-1.8-0.3c-0.5-0.3-0.7-0.8-0.8-1.5V0.6L84,0.4l-7.7,0.4v0.9
		c0.9,0.1,2.1,0.2,2.7,0.6c0.5,0.3,0.7,1.1,0.8,1.8v5.4c-0.4-0.2-1.8-0.9-3.7-0.9c-3.6,0-6.9,3-6.9,7.3c0,4.7,2.8,7.7,6.4,7.7
		c1.9,0,3.4-1.2,4.1-1.9l0.1,0v1.3l0.2,0.2L86.9,23L86.9,23z M79.9,20.5c-0.6,0.8-1.3,1.4-2.4,1.4c-2.4,0-3.3-2.8-3.3-5.6
		c0-4,1.4-6.3,3.2-6.3c1.6,0,2.3,1.3,2.6,2.3V20.5L79.9,20.5z M105.3,23.3v-0.9c-0.3,0-0.8-0.1-1.2-0.2c-0.6-0.2-1-0.4-1.3-1
		c-1-2.3-2.1-5.9-5.2-7.3c0.9-0.9,1.7-1.6,2.4-2.1c1-0.7,2-1.3,3.8-1.8V9.1h-6.9V10c0.9,0.1,1.8,0.3,1.8,0.8c0,0.2-0.1,0.4-0.5,0.9
		c-1.2,1.4-3.1,3.1-4.5,4.4V0.6l-0.2-0.2l-7.1,0.4v0.9c0.6,0,1.7,0.2,2.1,0.4c0.5,0.3,0.8,1.1,0.8,1.8v16.8c0,0.7-0.2,1.2-0.8,1.3
		c-0.4,0.1-0.8,0.2-1.3,0.2v0.9h8.5v-0.9c-0.4,0-0.9-0.1-1.3-0.3c-0.6-0.2-0.7-0.7-0.7-1.3v-3.6c0.2-0.2,0.7-0.3,0.9-0.3
		c1.7,0,3.5,4.2,4.1,6.5H105.3L105.3,23.3z M112.1,3.4c0-1.5-1.2-2.6-2.7-2.6c-1.5,0-2.7,1.2-2.7,2.6S108,6,109.5,6
		C111,6,112.1,4.9,112.1,3.4L112.1,3.4z M114.1,23.3v-0.9c-0.6,0-0.9-0.2-1.3-0.4c-0.6-0.2-0.8-0.7-0.8-1.4V9.1l-0.2-0.2l-6.8,0.4
		v0.9c0.6,0,1.5,0.3,1.8,0.5c0.5,0.3,0.7,0.9,0.8,1.5v8.5c0,0.7-0.2,1.2-0.8,1.3c-0.4,0.1-0.8,0.2-1.3,0.2v0.9H114.1L114.1,23.3z
		 M133,23.3v-0.9c-0.6,0-0.9-0.2-1.3-0.3c-0.6-0.2-0.7-0.7-0.7-1.3v-7.1c0-2.9-1.4-4.8-4.2-4.8c-2.6,0-3.8,1.4-5,2.5h-0.1V9.1
		l-0.2-0.2L115,9.2v0.9c0.6,0,1.2,0.2,1.5,0.4c0.5,0.3,0.8,1,0.8,1.6v8.5c0,0.7-0.2,1.2-0.8,1.3c-0.4,0.1-0.8,0.2-1.3,0.2v0.9h8.3
		v-0.9c-0.4,0-0.8-0.2-1.1-0.4c-0.5-0.2-0.6-0.7-0.6-1.3v-7.8c0.3-0.7,1.2-2,3-2c1,0,1.9,1.1,1.9,3.1v6.8c0,0.7-0.1,1.2-0.6,1.3
		c-0.3,0.1-0.7,0.2-1.1,0.2v0.9H133L133,23.3z"/>
</g>
</svg>
